<mxfile host="app.diagrams.net" modified="2024-06-09T13:00:51.975Z" agent="Mozilla/5.0 (Windows NT 10.0; Win64; x64) AppleWebKit/537.36 (KHTML, like Gecko) Chrome/125.0.0.0 Safari/537.36" version="24.5.2" etag="3-9t3bEoTwfQ0hOFJbbV" type="github">
  <diagram name="Page-1" id="rNQe_Q31Vye1G4-0HRwk">
    <mxGraphModel>
      <root>
        <mxCell id="0" />
        <mxCell id="1" parent="0" />
      </root>
    </mxGraphModel>
  </diagram>
</mxfile>
